<svg width="51" height="55" viewBox="0 0 51 55" fill="none" xmlns="http://www.w3.org/2000/svg">
<circle cx="25.0362" cy="25.1784" r="25" fill="#949494"/>
<path d="M38.0654 40.4378C38.0654 38.6291 37.7289 36.8382 37.0751 35.1671C36.4213 33.4961 35.463 31.9778 34.2549 30.6989C33.0468 29.4199 31.6126 28.4054 30.0341 27.7133C28.4557 27.0211 26.7639 26.6649 25.0554 26.6649C23.3469 26.6649 21.6552 27.0211 20.0767 27.7133C18.4983 28.4054 17.064 29.4199 15.856 30.6989C14.6479 31.9778 13.6896 33.4961 13.0357 35.1671C12.3819 36.8382 12.0454 38.6291 12.0454 40.4378L25.0554 40.4378H38.0654Z" fill="#D9D9D9"/>
<circle cx="25" cy="17" r="8" fill="#D9D9D9"/>
</svg>
